<svg id="Layer_1" data-name="Layer 1" xmlns="http://www.w3.org/2000/svg" viewBox="0 0 695.84 616.57"><defs><style>.cls-1{fill:#03a9f4;}.cls-2{fill:#29abe2;}.cls-3{fill:#02953a;}</style></defs><path class="cls-1" d="M538.59,460.09a3.22,3.22,0,0,1,2.85-2.17c15.93-.26,31.87-.19,47.79-.05a3.46,3.46,0,0,1,3.19,2.39c2.11,4.75,3.79,9.67,5.75,14.49-19.87.07-39.73,0-59.59,0Q538.67,467.44,538.59,460.09Z" transform="translate(-252.08 -191.72)"/><path class="cls-1" d="M620.27,458c9.17.06,18.34.08,27.51,0,.06,5.67-.06,11.33.08,17-6,.07-11.93,0-17.88,0-1.31,0-3-.16-3.68-1.49C624.11,468.39,622.27,463.15,620.27,458Z" transform="translate(-252.08 -191.72)"/><path class="cls-1" d="M404.27,510.9c.34.38.7.77,1.08,1.12.2.18.38.36.58.53C405.35,512,404.8,511.47,404.27,510.9Zm64.78,33.3c1.42.43,2.84.83,4.28,1.27l.11,0C472,545,470.49,544.6,469.05,544.2Zm155.14,96.36,0,.26.6-.23Z" transform="translate(-252.08 -191.72)"/><path class="cls-2" d="M496.91,479.67c-.25,13.23-.66,26.46-1.06,39.73-.15,3.94.15,7.89-.3,11.81-1.48-1.69-.72-4.1-.91-6.15-.46-12.59-.92-25.18-1.45-37.78q-52.41.08-104.83,0A56.2,56.2,0,0,1,382,487v2.44c2.81,5.25,4.82,10.87,7.78,16.05a97.34,97.34,0,0,0,16.89,22.21c12.45,12,28.17,20.18,44.7,25.08,21,6.19,43,8.52,64.81,8.77,6.78.06,13.73-.27,20.32,1.72,10,2.73,19,9.49,23.73,18.82a27.69,27.69,0,0,1,.38,24.83c-4,7.78-11.28,13.44-19.27,16.78-16.64,6.85-34.68,9.59-52.59,10.09a11.83,11.83,0,0,0-9.81,5.76c-8.27,11.14-7.91,25.61-11.84,38.36,24.11-.07,48.23,0,72.34,0,1.65,0,3.09-.86,4.49-1.6,5.23-3,10.36-6.38,16.15-8.22a161.64,161.64,0,0,1,53.4-7.63,152.24,152.24,0,0,1,43.36,8.07c4.29,1.53,8.63,3,12.38,5.63,2.53,1.37,4.76,3.88,7.85,3.75,22.07,0,44.13,0,66.18,0a140.07,140.07,0,0,1-4.43-15.6,69.9,69.9,0,0,0-7.33-18.84c-1.77-3-3.34-6.21-6.16-8.31-2.18-1.53-5-1.22-7.46-1.45A192.36,192.36,0,0,1,689,630.54c-12.88-2.67-26-6.24-37-13.74-5.53-3.5-10.15-8.83-11.84-15.24-2.19-8.58.48-17.5,4.51-25.08,6-10.68,16.28-18.16,26.93-23.82,13.43-7.29,28.22-11.66,43.08-15.1a325.92,325.92,0,0,1,48.06-7.39c4.58-.4,9.2-.4,13.76-1.13,1.1-10.32,6-49.35,6-49.35Q639.68,479.62,496.91,479.67Zm-23.58,65.8a8.4,8.4,0,0,1-1.59.28,37.83,37.83,0,0,1-6.39-.18c-12.68-1.5-24.62-6.52-35.75-12.6-1.25-.71-2.47-1.42-3.71-2.19s-2.46-1.52-3.68-2.3c-1.49-1-3-2-4.41-3-1.11-.79-2.21-1.62-3.29-2.46-.66-.54-1.35-1.07-2-1.62-.89-.74-1.74-1.48-2.61-2.26s-1.65-1.57-2.46-2.38a58.05,58.05,0,0,1-6-6.91,21.87,21.87,0,0,1-1.5-2.2c-.23-.36-.43-.76-.64-1.14-.08-.2-.17-.39-.25-.58a5.92,5.92,0,0,1-.28-.64h0l0,.05c.38.33.71.67,1.07,1s.75.74,1.11,1.14c1.1,1.12,2.16,2.29,3.28,3.37.53.57,1.08,1.12,1.66,1.65s1.14,1,1.76,1.55,1,.91,1.57,1.37,1.06.89,1.6,1.32c1.17,1,2.36,1.87,3.55,2.76.5.41,1,.79,1.54,1.14,0,0,0,0,.05,0,.56.41,1.17.8,1.73,1.2l1.34.91c.08,0,.15.11.23.15a1.2,1.2,0,0,0,.17.11c1,.65,2,1.27,2.95,1.87,1.31.82,2.63,1.6,4,2.35s2.76,1.53,4.18,2.27h0c.64.35,1.3.68,1.93,1s1.32.62,2,1l3.5,1.62,1.21.54c1.21.53,2.46,1.06,3.7,1.57,1.42.57,2.84,1.16,4.29,1.69s2.86,1.09,4.31,1.6c1.16.43,2.3.84,3.47,1.22,1.34.48,2.71.94,4.09,1.36l1.16.38.95.31.95.28c2.28.74,4.59,1.42,6.9,2.08,1.44.4,2.91.83,4.39,1.25ZM544,632.83c-4.9,3.44-10.42,5.8-16,8-11.89,4.52-24.44,6.75-37,8.57,14.5.19,32.37,2,45.51,2h.22c.16,4,.95,12.14.95,12.14l-4.85-9.11c-14.55.06-52.51-3.07-54.21-3.11,0-1-.08-1.91-.1-2.87,1.08-.35,37.5-4.46,53.25-11.15,4.81-2,9.43-4.34,14.12-6.55A10.66,10.66,0,0,1,544,632.83Zm116.41-2.39c10.73,6.36,22.73,10.29,34.85,12.86a243,243,0,0,0,36.95,4.51,10.53,10.53,0,0,1,1,4.44l-53.1,2s-2.66,6.13-3.93,9.9c-.33,0,.68-13.1.68-13.1,12.3-.13,44.71-.38,44.71-.38-16.15-2.86-32.58-5.45-47.74-12-5.74-2.57-11.49-5.33-16.49-9.18A5.5,5.5,0,0,1,660.36,630.44Zm-17.64,10c3.75.94,7.32,2.51,11.08,3.48a282.6,282.6,0,0,0-29-3.37l-.6.23,0-.26c-3.22-.21-6.35-.36-9.41-.45-2.37-.09-4.68-.13-6.94-.15-3.18,0-6.26,0-9.21,0q-3.52.07-6.81.22c-18.71.8-30.93,3.07-32.1,3.37-.77,0,7.88-2.71,16-4.71.49-5.89-.92-27.08,2.09-26.82V593.76c0-18.29,0-36.59.05-54.87,0-2.41-.59-3.22-2.78-3.16-4.9.16-9.81,0-15.06,0V531.9c0-3.78-.14-7.58,0-11.35.14-3.06-.06-5.26-3.21-6.71-3.4-1.58-4.66-6.42-3.55-10.46s4.66-6.86,8.49-6.62,7,3.3,7.82,7.59c.77,4-1,8.48-4.51,10-2.17,1-2.49,2.33-2.44,4.54.12,4.54,0,9.09,0,14h14.07c3.75,0,3.75,0,3.74,4.09q0,35.88,0,71.77c0,1.39-.71,3.33,1.55,3.71.19,0,.39.75.39,1.15q0,11.85,0,23.75c.89-.17,1.73-.31,2.48-.41,2.27-.35,4.56-.63,6.85-.86,0-7,0-14.1,0-21.14,0-1.16-.26-2.4,1.3-3,.48-.18.72-1.79.74-2.75,0-8.34,0-16.69,0-25,0-18.29,0-36.57,0-54.86,0-1.94-.44-2.93-2.16-3.7-3.74-1.66-5.6-6-4.79-10.37a8.79,8.79,0,0,1,8.17-7.45c3.81-.08,7.31,2.89,8.23,7,1,4.43-.74,9-4.53,10.74-2,.89-2.3,2.1-2.3,4.14q.09,33.1.06,66.2c0,4.65-.07,9.31,0,14,0,.83.81,1.6,1.17,2.43a7.28,7.28,0,0,1,.79,2.5c.08,4.48,0,9,0,13.45,0,2.44,0,4.88,0,7.33,3.08-.16,6.15-.21,9.23-.16q0-10.26,0-20.51c0-1.19-.28-2.5,1.37-2.85.37-.07.76-1.24.77-1.91,0-18.1,0-36.2.06-54.3,0-1.67-.77-2.2-2-2.76a9.46,9.46,0,0,1-5-10.76c1-4.4,4.46-7.3,8.6-7.15s7.28,3.44,8,8a9.37,9.37,0,0,1-5.19,9.93c-1.45.67-1.83,1.53-1.83,3.14q.07,26.63,0,53.25c0,1.17-.3,2.51,1.32,2.93.33.09.65,1.12.65,1.71,0,7.19,0,14.38,0,21.57,3.09.21,6.17.51,9.23.92q0-11,0-22c0-1.09-.26-2.26,1.33-2.56.4-.07.81-1.67.81-2.57.06-13.79,0-27.59,0-41.4,0-10.73.07-21.46,0-32.18,0-2.5.73-3.14,2.85-3.08,4.9.14,9.8,0,15,0,0-5.67.07-11-.08-16.35,0-.64-1.14-1.44-1.89-1.84a9.78,9.78,0,0,1-5.15-8.79,9.49,9.49,0,0,1,5.67-8.63,8.26,8.26,0,0,1,10.54,5.05c1.8,4.61.14,10.08-4,12-2,.93-2.49,2.1-2.44,4.3.12,5.36,0,10.73,0,16.09a6.91,6.91,0,0,1-.23.91H629.06c-.08,1.4-.19,2.41-.19,3.41q0,18.88,0,37.73,0,16.44,0,32.88c0,1.52-.06,2.92,1.94,2.71,0,.68.26,12.82.49,25.4C635.12,638.53,638.93,639.42,642.72,640.48Zm-1.5-77.62a13,13,0,0,0-3.22,3.55,6,6,0,0,1,1.06-3.42c3.1-4.54,7.36-8.11,11.75-11.39a96.74,96.74,0,0,1,34.78-14.78c4.47-.74,9.09-1.72,13.59-.84C678.34,540.81,657.35,548.41,641.22,562.86Zm119.53-75.18c-.46.07-.91.15-1.37.26-4.62.07-9.22.17-13.84.25l-27.67.53c-24.59.43-49.21.79-73.81.73-31.14,0-62.28-.15-93.39-.83-13.36-.25-26.72-.59-40.09-.68a.7.7,0,0,1-.85-.23,1.45,1.45,0,0,1-.34-.59c2.29,1.09,5-.2,7.48-.07,58.55-1.17,117.15-1.25,175.7-.84,18.28.2,36.54.18,54.82.69,5.84.2,11.71-.16,17.57.38C763.54,487.45,762.15,487.48,760.75,487.68Z" transform="translate(-252.08 -191.72)"/><path class="cls-1" d="M598.54,415.5a3.89,3.89,0,0,1-.06-2.29,119.81,119.81,0,0,1,5.38,12.93c.55,1.24-.41,2.39-.83,3.49C601.51,424.93,600,420.21,598.54,415.5Z" transform="translate(-252.08 -191.72)"/><path class="cls-1" d="M738.56,323.32c-1.16-3.68-3.56-6.8-5.57-10.05a40.56,40.56,0,0,0-4.56.15c-8.18,4.75-16.81,8.61-25.08,13.06-13.73,7-27.41,13.9-41.08,21C634,361.66,606,376.34,577.63,390.33c-3-6.13-6.06-12.3-9.37-18.28a8,8,0,0,0-9.37-3.75c-4,1.4-7.71,3.73-11.57,5.55-3.65,2.23-8.27,3.33-10.8,7-1.8,2.52-1.35,5.83-.1,8.5,2.36,4.86,4.9,9.63,7.33,14.45.41,1,1.17,2.13.73,3.29-2.63,5.51.57,12.64,6.06,15,.42,0,1.22.1,1.61.13,2,1.57,2.93,4,4.11,6.16,1.66,3.29,3.39,6.6,5.09,9.89,1.08,2.05,2.48,4.15,4.69,5.17,2.35,1.27,5.19.61,7.52-.4,1.24-.56,2.49-1.16,3.69-1.76l0,0c.74-.35,1.48-.73,2.21-1.11h0c2.22-1.14,4.43-2.3,6.67-3.42,2.84-1.44,5.91-2.86,7.86-5.5s1.11-6.29-.23-9.08c-2.79-5.67-5.62-11.35-8.62-16.91,1.29-.69,2.59-1.37,3.83-2.11,27.41-13.69,55.2-28.09,82.57-41.91q25.21-12.85,50.4-25.67c5.33-2.78,10.83-5.28,15.95-8.41l-.6-.41.78.15C738.37,325.73,739.1,324.51,738.56,323.32ZM542.31,395.84c-1.45-3.93-3.56-7.63-4.47-11.74a11.64,11.64,0,0,1,2.54-4c.35.09.68.27,1,.4-1.25,1.27-2.79,2.89-2,4.84,1.24,3.47,3,6.8,3.83,10.42Zm16.5-24.57c1.25-.23,2.82-.91,3.91.13,1.45,1.59,2.21,3.7,3.4,5.53,1.34,2.42,3.11,4.64,4.26,7.17-4.67-2.89-5.07-9.74-10.3-12C559.65,371.85,559.21,371.57,558.81,371.27Zm8.92,70.8c-3.26-3.2-5.11-7.49-7.42-11.34.05-.3.15-.89.23-1.19,2.4,2.89,4.1,6.28,6.19,9.43.93,1.7,3.06,1.53,4.73,1.83ZM586.53,416a108.89,108.89,0,0,1,4.86,11.76c.51,1.12-.35,2.18-.73,3.18-1.39-4.3-2.73-8.58-4.08-12.87A3.4,3.4,0,0,1,586.53,416Zm146.38-90.18q-73.11,37.32-146.23,74.53l-2.84,1.38c-.3-.24-.89-.74-1.19-1A15.72,15.72,0,0,1,589,396.3q68.34-34.93,136.84-69.61c3.19-1.57,6.29-3.71,10-3.83A31.07,31.07,0,0,1,732.91,325.82Z" transform="translate(-252.08 -191.72)"/><path class="cls-1" d="M465.68,407.55l1.12.17a297.3,297.3,0,0,1,42.37,19.22L541.49,444s-9.82-4.16-12.73-5.41C507.31,429.19,485.35,420.48,465.68,407.55Z" transform="translate(-252.08 -191.72)"/><path class="cls-1" d="M514.18,414.4c3,.56,5.52,2.43,7.92,4.24,6.68,5.35,12.16,12,18.31,17.88,0,0-16.29-10.19-21.15-15.29A21.44,21.44,0,0,1,514.18,414.4Z" transform="translate(-252.08 -191.72)"/><path class="cls-1" d="M568,364.06c1.38-.26,3.11-1,4.3.12,1.6,1.78,2.44,4.09,3.75,6.08,1.47,2.69,3.4,5.1,4.67,7.91-5.14-3.2-5.57-10.71-11.3-13.18C569,364.7,568.49,364.39,568,364.06Z" transform="translate(-252.08 -191.72)"/><path class="cls-1" d="M547.78,373.82a8.37,8.37,0,0,1,1.14.44c-1.38,1.39-3.06,3.18-2.17,5.31C548.12,383.4,550,387,551,391l-1.06,0c-1.6-4.31-3.89-8.39-4.92-12.89A12.73,12.73,0,0,1,547.78,373.82Z" transform="translate(-252.08 -191.72)"/><path class="cls-1" d="M569.92,428.08c2.65,3.18,4.52,6.93,6.8,10.37,1,1.88,3.38,1.68,5.21,2l-4.1,1.41c-3.57-3.51-5.61-8.24-8.16-12.47C569.73,429.07,569.86,428.41,569.92,428.08Z" transform="translate(-252.08 -191.72)"/><path class="cls-1" d="M482.46,439.31a135.91,135.91,0,0,1,16.27.44c14.45,1.28,28.51,5.05,42.85,7.05-7.32,0-14.6-1-21.92-1.19-10.44-.69-21-1.54-31.12-4.25A31.74,31.74,0,0,1,482.46,439.31Z" transform="translate(-252.08 -191.72)"/><path class="cls-1" d="M601.43,458.67c2.29-1.22,5.42-1.48,7.47.36a17.51,17.51,0,0,1,2.11,4.9c1.15,3.68,2.7,7.23,4.17,10.79-2.64.46-6.67.9-7.66-2.38A111.65,111.65,0,0,0,603,460.23a3,3,0,0,0-1.38-1.47Z" transform="translate(-252.08 -191.72)"/><path class="cls-1" d="M614.81,460.28c-.36-1-1.21-2.64.54-2.69A5.49,5.49,0,0,1,618.7,461c1.59,4.05,3.22,8.09,4.75,12.17a5.26,5.26,0,0,0,1.36,2.14l-1.09.08a7.71,7.71,0,0,1-3-.41C618.46,470.55,616.74,464.87,614.81,460.28Z" transform="translate(-252.08 -191.72)"/><path class="cls-3" d="M405.93,512.55c-.2-.17-.38-.35-.58-.53-.38-.35-.74-.74-1.08-1.12C404.8,511.47,405.35,512,405.93,512.55Z" transform="translate(-252.08 -191.72)"/><path class="cls-1" d="M473.44,545.45l-.11,0c-1.44-.44-2.86-.84-4.28-1.27C470.49,544.6,472,545,473.44,545.45Z" transform="translate(-252.08 -191.72)"/><path class="cls-3" d="M855.26,635.33a77.84,77.84,0,0,0-12.37,9.53h0s0,0,0,0a0,0,0,0,0,0,0,229.53,229.53,0,0,0,10.87-21.67h0a42.77,42.77,0,0,0,29.39-8.83c15.45-12,20.43-35,20.23-34.89-.08-.09-16.8,1.18-30.64,13.18a79.38,79.38,0,0,0-12.62,14.46h0a228.39,228.39,0,0,0,7.54-26,41.9,41.9,0,0,0,28.6-13.56c12.94-14.33,13.6-37.78,13.43-37.64-.1-.08-16.23,3.92-27.59,18-5.76,7.2-9.73,15.73-12.25,22.35h0q.69-3.86,1.25-7.74,1.83-12.69,2.72-24.94l.13,0a1.61,1.61,0,0,0,.38.09s0,0,0-.17c3.23-.65,17.46-4,26.15-18.19,10-16.26,6.25-39.6,6.1-39.44-.11-.07-15.12,6.55-23.61,22.35-5.58,10.48-7.8,22.66-8.7,29.66,0-.21,0-.43-.05-.65a299.1,299.1,0,0,0-.27-38.3h0a38.86,38.86,0,0,0,21.61-22.13c6.72-17.77-1.63-40.43-1.76-40.25-.13-.05-13.48,9-18.68,26.13a78.73,78.73,0,0,0-3,19.24,236.48,236.48,0,0,0-5.71-28.39h0a36.87,36.87,0,0,0,14.71-24.23c3-18.85-10.06-40.23-10.17-40-.15,0-11.26,11.23-12.77,29.22a71.75,71.75,0,0,0,0,10.47v-.06A190,190,0,0,0,849,403.2h0a35.44,35.44,0,0,0,8-25.35c-1.17-19.42-19.06-38.95-19.14-38.75-.17,0-8.48,13.13-5.87,31.52a79.34,79.34,0,0,0,2,9.47h0a179.18,179.18,0,0,0-13.81-16.13h0c2.74-4.88,6.56-14.73,2.55-27.94-5.75-19.45-28.6-36.55-28.67-36.34-.18,0-5.1,14.65,2.05,32.91a108,108,0,0,0,9.17,17.51h0q-6.78-5.66-14.16-10.76h0C790,334,786.12,321,775.31,312c-13.87-11.54-33.85-12.14-33.85-12.14S744,318,757.81,329.52c10.08,8.38,23.37,11,29.9,11.79A190,190,0,0,1,807.77,357l.09.07,0,0c-6.21-4.78-14.66-9.91-24-11.91C764.57,341.05,752,351.09,752,351c.26,0,16.47,12.78,33.91,17.4A57,57,0,0,0,818,367.22a1,1,0,0,1,.09.13.82.82,0,0,1,.14-.21h0a174.92,174.92,0,0,1,20.47,26v0h0l0,0h0c1.35,3.25,2.68,6.09,3.79,8.34-4.54-6.18-13.45-16.22-25.36-20.76a42,42,0,0,0-32.09.84c.22.06,12.79,14.47,28.71,21.5a57.85,57.85,0,0,0,31.51,3.76l.06.13s0-.07.18-.18a2.09,2.09,0,0,0,.37-.09s0-.06-.07-.18l.49-.45h0A192.7,192.7,0,0,1,856.23,428q2.55,6.68,4.63,13.61h0c-3.47-6.71-9.79-16.28-19.42-21.85-15.77-9.2-31.6-4-31.54-4.1.19.08,9.22,15.74,23.38,25,12.18,7.89,25.87,8.6,29.75,8.58h0a234.15,234.15,0,0,1,5.37,27.08h0A44,44,0,0,0,857,461c-13.65-11.37-30.29-8.84-30.22-8.94.16.1,5.76,16.58,17.91,27.81,8.89,8.16,19.93,11.49,25.39,12.67q.81,11,.75,22.54a38.77,38.77,0,0,0-6.67-11.62C852.91,490.23,836,490,836.07,489.94c.13.12,2.41,17,12.31,29.93,6.79,8.82,16.26,13.82,21.69,16.1q-.78,11.25-2.37,22.92a37.61,37.61,0,0,0-4.49-12.77c-8.7-14.85-25.41-17.81-25.31-17.88.1.13-.82,17,6.6,31.33,5.47,10.49,14.81,17.18,19.54,20h0a231.64,231.64,0,0,1-8,27.68c.8-6,.74-13-1.66-19.46-5.88-16.06-21.88-21.71-21.77-21.77.07.15-3.93,16.57.78,32,3.83,12.39,13.14,21,16.78,24h0a234.9,234.9,0,0,1-16.41,30.84,0,0,0,0,0,0,0c2.94-6.66,5.76-16.05,4.18-25.25-2.86-16.86-17.67-25.07-17.54-25.11,0,.16-6.94,15.72-5.15,31.75,1.6,14,10.35,24.64,12.77,27.25a241.66,241.66,0,0,1-25.42,30.72l0,0c4.65-5.93,11.38-16.54,11.59-27.91.39-17.22-12.77-27.79-12.63-27.81,0,.16-9.83,14.46-11.18,30.7-1.15,14.5,5.81,26.81,7.5,29.41a.64.64,0,0,1-.11.09l.22.11h0a252.69,252.69,0,0,1-24.64,21c-2.1,1.58-4.22,3.12-6.37,4.64l-1.22.72c5.87-5.09,15.1-14.73,17.61-26.24,3.82-17.09-7.21-29.74-7.07-29.75,0,.16-12.61,12.78-17.28,28.75-4.13,14.28.27,27.69,1.42,30.56l-.13.07.23.16,0,.09a256.24,256.24,0,0,1-37,20.29s0,0,0,0h0c7.11-4.32,17.6-12.15,22.28-22.63,7.45-16.44-1-30.85-.87-30.83,0,.16-15.28,10.68-23.48,25.87a51.7,51.7,0,0,0-5.26,30.71,264.1,264.1,0,0,1-25.93,9.08q-4.8,1.39-9.62,2.62c7.38-3.51,15.77-8.78,21.08-16.05A36.45,36.45,0,0,0,707.57,715c-.06.15-17.83,8.17-29.75,22a55,55,0,0,0-12.36,28.3h0a258.74,258.74,0,0,1-41,4.5l-1.59,2,1.27,1.58a262.07,262.07,0,0,0,42.24-4.62h0c3,4.12,11.8,14,29,16.61,22.26,3.49,46.84-8.32,46.55-8.38,0-.13-12.06-11.76-32.6-14a102.83,102.83,0,0,0-18.48-.09h.06l.42-.12a266.63,266.63,0,0,0,27.43-9.67,44.46,44.46,0,0,0,29.47,10.51c21.63,0,42.56-15.23,42.28-15.25,0-.12-14-9.5-33.91-8.54a88.72,88.72,0,0,0-14,1.94h0q10.89-5.84,21.17-12.71h0a44.48,44.48,0,0,0,29.9,5.37C814.4,731,831.54,713,831.28,713c0-.11-15.42-7-34.39-3a82.88,82.88,0,0,0-12.73,4l0,0q9.11-7.41,17.38-15.54h0a44.11,44.11,0,0,0,30.05.55c19.3-6.51,32.51-26.77,32.28-26.71,0-.11-16.39-4.36-34,2.58a78.82,78.82,0,0,0-12.25,6.27l0,0h0q7.49-8.9,14-18.37a43.57,43.57,0,0,0,29.85-4.16c17.56-9.42,26.72-31.32,26.51-31.23C888,627.22,871.19,625.72,855.26,635.33Z" transform="translate(-252.08 -191.72)"/><path class="cls-3" d="M490.65,763c-20.54,2.28-32.6,13.91-32.6,14-.29.06,24.29,11.87,46.55,8.38,17.18-2.66,26-12.49,29-16.61h0a262.07,262.07,0,0,0,42.24,4.62,2.55,2.55,0,0,0,.48,0l1.28-1.59-1.58-2h-.5a258.74,258.74,0,0,1-41-4.5h0A55,55,0,0,0,522.18,737c-11.92-13.84-29.69-21.86-29.75-22a36.45,36.45,0,0,0,5.94,30.92c5.31,7.27,13.7,12.54,21.08,16.05q-4.83-1.22-9.62-2.62a264.1,264.1,0,0,1-25.93-9.08,51.7,51.7,0,0,0-5.26-30.71c-8.2-15.19-23.44-25.71-23.48-25.87.16,0-8.32,14.39-.87,30.83,4.68,10.48,15.17,18.31,22.28,22.63h0s0,0,0,0a256.24,256.24,0,0,1-37-20.29l0-.09.23-.16-.13-.07c1.15-2.87,5.55-16.28,1.42-30.56-4.67-16-17.27-28.59-17.28-28.75.14,0-10.89,12.66-7.07,29.75,2.51,11.51,11.74,21.15,17.61,26.24l-1.24-.74c-2.14-1.5-4.26-3.05-6.35-4.62a252.69,252.69,0,0,1-24.64-21h0l.22-.11a.64.64,0,0,1-.11-.09c1.69-2.6,8.65-14.91,7.5-29.41-1.35-16.24-11.19-30.54-11.18-30.7.14,0-13,10.59-12.63,27.81.21,11.37,6.94,22,11.59,27.91l0,0A241.66,241.66,0,0,1,372,661.46c2.42-2.61,11.17-13.29,12.77-27.25,1.79-16-5.19-31.59-5.15-31.75.13,0-14.68,8.25-17.54,25.11-1.58,9.2,1.24,18.59,4.18,25.25a0,0,0,0,0,0,0A234.9,234.9,0,0,1,349.87,622h0c3.64-3,12.95-11.57,16.78-24,4.71-15.38.71-31.8.78-32,.11.06-15.89,5.71-21.78,21.77-2.39,6.48-2.45,13.44-1.65,19.46a231.64,231.64,0,0,1-8-27.68h0c4.73-2.85,14.07-9.54,19.54-20,7.42-14.34,6.5-31.2,6.6-31.33.1.07-16.61,3-25.31,17.88a37.61,37.61,0,0,0-4.49,12.77q-1.57-11.67-2.37-22.92c5.43-2.28,14.9-7.28,21.69-16.1,9.9-12.94,12.18-29.81,12.31-29.93.09.08-16.84.29-28.13,13.56a38.77,38.77,0,0,0-6.67,11.62q-.08-11.52.75-22.54c5.46-1.18,16.5-4.51,25.39-12.67,12.15-11.23,17.75-27.71,17.91-27.81.07.1-16.57-2.43-30.22,8.94a44,44,0,0,0-11.36,15.3h0A234.15,234.15,0,0,1,337,449.25h0c3.88,0,17.57-.69,29.75-8.58,14.16-9.24,23.19-24.9,23.38-25,.06.1-15.77-5.1-31.54,4.1-9.63,5.57-15.95,15.14-19.42,21.85h0q2.08-6.94,4.63-13.61a192.7,192.7,0,0,1,9.93-21.87h0l.49.45c-.06.12-.09.18-.07.18a2.09,2.09,0,0,0,.37.09c.13.11.2.18.18.18l.06-.13a57.85,57.85,0,0,0,31.51-3.76c15.92-7,28.49-21.44,28.71-21.5a42,42,0,0,0-32.09-.84C371,385.36,362,395.4,357.5,401.58c1.11-2.25,2.44-5.08,3.79-8.32l0-.06h0v0a174.92,174.92,0,0,1,20.47-26h0a.82.82,0,0,1,.14.21,1,1,0,0,1,.09-.13,57,57,0,0,0,32.06,1.16C431.53,363.76,447.74,351,448,351c0,.11-12.57-9.93-31.85-5.78-9.39,2-17.84,7.13-24,11.91l0,0,.09-.07a190,190,0,0,1,20.06-15.69c6.53-.8,19.82-3.41,29.9-11.79,13.86-11.53,16.35-29.63,16.35-29.63s-20,.6-33.85,12.14c-10.81,9-14.7,22-15.89,27.26h0q-7.39,5.1-14.16,10.76h0a108,108,0,0,0,9.17-17.51c7.15-18.26,2.23-32.91,2-32.91-.07-.21-22.92,16.89-28.67,36.34-4,13.21-.19,23.06,2.55,27.94h0a179.18,179.18,0,0,0-13.81,16.13h0a79.34,79.34,0,0,0,2-9.47c2.61-18.39-5.7-31.53-5.87-31.52-.08-.2-18,19.33-19.14,38.75a35.44,35.44,0,0,0,8,25.35h0a188,188,0,0,0-9.24,19.53v0a71.61,71.61,0,0,0,0-10.46c-1.51-18-12.62-29.25-12.77-29.22-.11-.19-13.16,21.19-10.17,40a36.87,36.87,0,0,0,14.71,24.23h0a236.48,236.48,0,0,0-5.71,28.39,78.73,78.73,0,0,0-2.95-19.24c-5.2-17.12-18.55-26.18-18.68-26.13-.13-.18-8.48,22.48-1.76,40.25A38.86,38.86,0,0,0,326,492.77h0a299.1,299.1,0,0,0-.27,38.3c0,.22,0,.44,0,.65-.9-7-3.13-19.18-8.7-29.66-8.49-15.8-23.5-22.42-23.61-22.35-.15-.16-3.93,23.18,6.1,39.44,8.69,14.19,22.92,17.54,26.15,18.19,0,.12,0,.18,0,.17a1.61,1.61,0,0,0,.38-.09l.13,0q.9,12.24,2.72,24.94c.37,2.59.79,5.17,1.24,7.74h0c-2.52-6.62-6.49-15.15-12.25-22.35-11.36-14.08-27.49-18.08-27.59-18-.17-.14.49,23.31,13.43,37.64A41.9,41.9,0,0,0,332.3,581a228.39,228.39,0,0,0,7.54,26h0a79.38,79.38,0,0,0-12.62-14.46c-13.84-12-30.56-13.27-30.64-13.18-.2-.11,4.78,22.85,20.23,34.89a42.77,42.77,0,0,0,29.39,8.83h0a229.53,229.53,0,0,0,10.87,21.67,0,0,0,0,0,0,0s0,0,0,0h0a77.71,77.71,0,0,0-12.36-9.52c-15.93-9.61-32.71-8.11-32.78-8-.21-.09,9,21.81,26.51,31.23a43.57,43.57,0,0,0,29.85,4.16q6.54,9.48,14,18.37h0l0,0a78.82,78.82,0,0,0-12.25-6.27c-17.63-6.94-34-2.69-34-2.58-.23-.06,13,20.2,32.28,26.71a44.12,44.12,0,0,0,30.05-.55h0q8.26,8.12,17.38,15.54l0,0a82.88,82.88,0,0,0-12.73-4c-19-4-34.36,2.85-34.39,3-.26,0,16.88,18,37.53,21.37a44.48,44.48,0,0,0,29.9-5.37h0q10.31,6.86,21.17,12.71h0a88.72,88.72,0,0,0-13.95-1.94c-19.93-1-33.9,8.42-33.91,8.54-.28,0,20.65,15.23,42.28,15.25a44.46,44.46,0,0,0,29.47-10.51,267.29,267.29,0,0,0,27.42,9.67l.43.12h.05A102.71,102.71,0,0,0,490.65,763Z" transform="translate(-252.08 -191.72)"/><polygon class="cls-1" points="367.92 580.08 382.56 561.84 357.92 564.29 347.92 543.6 337.92 564.29 313.28 561.84 327.92 580.08 313.28 598.33 337.92 595.88 347.92 616.57 357.92 595.88 382.56 598.33 367.92 580.08"/><path class="cls-3" d="M302.19,193.16a6.74,6.74,0,0,0-1.65.61,19.44,19.44,0,0,1-4.22.41c-2.35.09-23.19.09-27.1.09-1.42,0-3.78-.09-6.46-.19s-5.63-.11-8.32-.11c-1.53,0-2.36.21-2.36,1,0,.61.74.81,1.75.81a20.68,20.68,0,0,1,4,.31c3.4.73,4.2,2.36,4.41,5.85.2,3.31.2,6.17.2,21.76v18.08c0,9.83,0,17.55-.51,21.85-.4,3-.94,5.23-3,5.66a16.34,16.34,0,0,1-3.67.41c-1.15,0-1.55.31-1.55.81,0,.84.71,1,2.15,1,3.91,0,10.38-.31,13-.31s9.14.31,15.6.31c1.55,0,2.29-.31,2.29-1,0-.5-.44-.81-1.76-.81a42.7,42.7,0,0,1-5.15-.41c-3.07-.43-3.67-2.69-4-5.66-.51-4.3-.51-12-.51-21.85V233.5c0-.71.21-.93.74-.93,1.72,0,12.61,0,15.19.32,3.17.41,4.71,2.26,5.22,3.68a11.31,11.31,0,0,1,.61,3.19c0,.72.22,1.42.83,1.42,1,0,1-1,1-1.93,0-.72.21-5.45.4-7.5.34-3.16.85-5.75.85-6.36s-.21-.91-.61-.91c-.64,0-.85.4-1.34,1-1.05,1.34-2.47,1.76-4.43,1.85-1.44.1-2.86.1-4.6.1l-13.14.11c-.64,0-.74-.3-.74-.92V201c0-1.14.31-1.44.95-1.44l15.79.3c3.9.1,6.06,1.65,6.77,3.07a9.89,9.89,0,0,1,.63,3.9c.11,1.14.3,1.65,1,1.65s.91-.61,1-1.44c.23-1.22.43-7.28.53-8.29.31-2.69.81-3.91.81-4.64C302.89,193.57,302.59,193.16,302.19,193.16Z" transform="translate(-252.08 -191.72)"/><path class="cls-3" d="M384,269.74a22.24,22.24,0,0,1-4.32-.41c-2.15-.53-5.15-1.95-9-11.21-6.59-15.59-23-57.48-25.45-63.11-1-2.35-1.65-3.29-2.59-3.29s-1.62,1.13-2.86,4.1L314,260.28c-2.06,5.15-4,8.62-8.73,9.26a31.92,31.92,0,0,1-3.19.2c-.82,0-1.22.2-1.22.81,0,.84.61,1,2,1,5.33,0,11-.31,12.1-.31,3.2,0,7.61.31,10.88.31,1.14,0,1.75-.2,1.75-1,0-.61-.31-.81-1.52-.81h-1.55c-3.2,0-4.11-1.34-4.11-3.19a19.81,19.81,0,0,1,1.55-6.27l5.53-14.65c.19-.64.4-.85.93-.85h22.87a1,1,0,0,1,1,.74l8.22,21.76a1.67,1.67,0,0,1-.93,2.36c-1,.1-1.42.3-1.42.91s1.21.73,3.06.84c8.22.2,15.7.2,19.39.2s4.73-.2,4.73-1S384.8,269.74,384,269.74Zm-34.72-30.07H330.41c-.43,0-.53-.31-.43-.74l9.45-25.23c.11-.43.31-.93.62-.93s.4.5.49.93L349.8,239C349.91,239.36,349.8,239.67,349.27,239.67Z" transform="translate(-252.08 -191.72)"/><path class="cls-3" d="M465.48,269.74a13.08,13.08,0,0,1-2.66-.28.58.58,0,0,1-.23,0c-1.54-.3-5.72-1-11.48-7-6.07-6.36-13.14-15.5-22.3-27,10.38-8.42,13.57-15.4,13.57-23a17.77,17.77,0,0,0-7-14.08c-5.52-3.77-12.4-4.41-18.86-4.41-3.19,0-11,.3-14.48.3-2.15,0-8.62-.3-14.08-.3-1.54,0-2.25.21-2.25.94s.61.91,1.74.91a20.68,20.68,0,0,1,4,.31c3.38.73,4.21,2.36,4.42,5.85.2,3.31.2,6.17.2,21.76v18.08c0,9.43,0,17.55-.51,21.85-.4,3-.93,5.23-3,5.66a16.34,16.34,0,0,1-3.67.41c-1.25,0-1.65.31-1.65.81,0,.73.7,1,2.05,1,4.11,0,10.58-.31,12.53-.31,1.51,0,9.12.31,15.08.31,1.33,0,2.05-.31,2.05-1,0-.5-.4-.81-1.23-.81a46.06,46.06,0,0,1-5-.41c-3.1-.43-3.71-2.69-4-5.66-.51-4.3-.51-12.42-.51-22v-1.45c0-.6.3-.81.81-.81l8.93.21a2.12,2.12,0,0,1,1.85.7c1.34,1.55,6,8.52,10.16,14.18,5.77,7.89,9.64,12.73,14.06,15.09,2.69,1.42,5.25,1.95,11,1.95h9.73a3.82,3.82,0,0,0,1.35-.18.8.8,0,0,0,.61-.86C466.7,270.05,466.29,269.74,465.48,269.74ZM424.2,233c-1.85,1.31-3.17,1.72-7.28,1.72a27.53,27.53,0,0,1-7.81-1c-.7-.31-.91-.71-.91-1.86V200.64c0-.81.21-1.22.91-1.42a22.77,22.77,0,0,1,5.45-.4c6.07,0,15.71,4.2,15.71,18.76C430.27,226,427.3,230.74,424.2,233Z" transform="translate(-252.08 -191.72)"/><path class="cls-3" d="M562.67,269.74a20.09,20.09,0,0,1-6.36-1c-3.09-.92-4.11-3.88-5-10.35l-9.33-63.44c-.31-2.15-1-3.19-1.86-3.19s-1.45.83-2.25,2.46L509.91,252.8l-28-57.89c-1.34-2.66-1.95-3.19-2.79-3.19s-1.42.94-1.73,2.68l-10.16,66.92c-.51,3.5-1.35,7.48-4.21,8.11-.08,0-.13,0-.18,0a12.71,12.71,0,0,1-2.92.28c-1,0-1.62.2-1.62.71,0,.94.82,1.14,1.83,1.14,1.77,0,4-.08,6-.18,1.75-.05,3.29-.13,4.18-.13,1.86,0,6.47.31,10.78.31,1.55,0,2.46-.2,2.46-1.14,0-.51-.71-.71-1.52-.71a19.75,19.75,0,0,1-4.31-.51c-1.75-.43-3.09-1.34-3.09-3.29a39.42,39.42,0,0,1,.3-4.82l5.35-40.85h.41c3.59,7.68,9.76,20.61,10.67,22.77,1.25,2.89,9.33,18.59,11.82,23.3,1.62,3.09,2.66,5.15,3.57,5.15s1.44-.94,3.81-5.76l22.39-46.6h.4l6.17,45.16c.4,2.89.09,4.21-.53,4.41s-1.12.63-1.12,1.14.61.91,3,1.12c4.11.32,18.28.63,20.84.63,1.45,0,2.67-.31,2.67-1.14C564.3,269.84,563.59,269.74,562.67,269.74Z" transform="translate(-252.08 -191.72)"/><path class="cls-1" d="M620.33,193.16a6.54,6.54,0,0,0-1.64.61,19.41,19.41,0,0,1-4.21.41c-2.36.09-23.21.09-27.11.09-1.42,0-3.78-.09-6.44-.19s-5.65-.11-8.32-.11c-1.54,0-2.35.21-2.35,1,0,.61.7.81,1.72.81a20.68,20.68,0,0,1,4,.31c3.39.73,4.21,2.36,4.41,5.85.2,3.31.2,6.17.2,21.76v18.08c0,9.83,0,17.55-.5,21.85-.41,3-.92,5.23-3,5.66a16.66,16.66,0,0,1-3.71.41c-1.13,0-1.54.31-1.54.81,0,.84.73,1,2.15,1,3.91,0,10.37-.31,13-.31s9.15.31,15.62.31c1.52,0,2.25-.31,2.25-1,0-.5-.4-.81-1.74-.81a42.38,42.38,0,0,1-5.15-.41c-3.07-.43-3.68-2.69-4-5.66-.54-4.3-.54-12-.54-21.85V233.5c0-.71.21-.93.74-.93,1.75,0,12.62,0,15.19.32,3.17.41,4.72,2.26,5.23,3.68a11,11,0,0,1,.62,3.19c0,.72.21,1.42.82,1.42,1,0,1-1,1-1.93,0-.72.2-5.45.4-7.5.3-3.16.81-5.75.81-6.36s-.2-.91-.6-.91c-.61,0-.84.4-1.35,1-1,1.34-2.46,1.76-4.41,1.85-1.44.1-2.86.1-4.62.1l-13.13.11c-.63,0-.74-.3-.74-.92V201c0-1.14.34-1.44.94-1.44l15.79.3c3.92.1,6.07,1.65,6.78,3.07a9.75,9.75,0,0,1,.64,3.9c.1,1.14.3,1.65,1,1.65s.94-.61,1-1.44c.2-1.22.41-7.28.51-8.29.3-2.69.81-3.91.81-4.64C621.05,193.57,620.75,193.16,620.33,193.16Z" transform="translate(-252.08 -191.72)"/><path class="cls-1" d="M675.64,192.55c-30.78,0-42.38,22.68-42.38,40.24,0,18.16,11.9,40.22,41.36,40.22,26.07,0,42.5-18.56,42.5-42.07S701.2,192.55,675.64,192.55Zm3.3,75.34c-19.71,0-31.52-16.94-31.52-38.29,0-25.56,13.46-32.13,25.25-32.13,16.84,0,30.08,14.28,30.08,37.25C702.75,264.39,686.11,267.89,678.94,267.89Z" transform="translate(-252.08 -191.72)"/><path class="cls-1" d="M808,269.74a15.56,15.56,0,0,1-2.86-.31c-1.55-.3-5.76-1-11.51-7-6.07-6.36-13.14-15.5-22.26-27,10.36-8.42,13.53-15.4,13.53-23a17.85,17.85,0,0,0-7-14.08C772.32,194.61,765.45,194,759,194c-3.2,0-11,.3-14.48.3-2.16,0-8.63-.3-14-.3-1.55,0-2.26.21-2.26.94s.62.91,1.72.91a20.54,20.54,0,0,1,4,.31c3.41.73,4.21,2.36,4.41,5.85.21,3.31.21,6.17.21,21.76v18.08c0,9.43,0,17.55-.51,21.85-.4,3-.91,5.23-3,5.66a16.47,16.47,0,0,1-3.69.41c-1.25,0-1.65.31-1.65.81,0,.73.73,1,2,1,4.1,0,10.57-.31,12.53-.31,1.55,0,9.12.31,15.08.31,1.35,0,2.05-.31,2.05-1,0-.5-.4-.81-1.21-.81a46,46,0,0,1-5-.41c-3.07-.43-3.71-2.69-4-5.66-.51-4.3-.51-12.42-.51-22v-1.45c0-.6.3-.81.81-.81l8.95.21a2.08,2.08,0,0,1,1.82.7c1.35,1.55,6.06,8.52,10.17,14.18,5.77,7.89,9.67,12.73,14.08,15.09,2.67,1.42,5.22,1.95,11,1.95h9.77c1.21,0,1.91-.2,1.91-1C809.16,270.05,808.76,269.74,808,269.74ZM766.67,233c-1.83,1.31-3.17,1.72-7.28,1.72a27.48,27.48,0,0,1-7.81-1c-.71-.31-.91-.71-.91-1.86V200.64c0-.81.2-1.22.91-1.42a22.77,22.77,0,0,1,5.45-.4c6.07,0,15.71,4.2,15.71,18.76C772.74,226,769.77,230.74,766.67,233Z" transform="translate(-252.08 -191.72)"/><path class="cls-1" d="M883.9,233.1c-3.41,0-8.83.3-12,.3s-9.54-.3-14.89-.3c-1.42,0-2.15.2-2.15,1,0,.6.63.83,1.54.83a20.68,20.68,0,0,1,4,.31c3.4.7,4.31,2.35,4.41,5.83.11,3.09.11,7,.11,12.11v9.67c0,1.73-.41,3.07-2,3.77-2.47,1.14-6.06,1.14-8.72,1.14-21.65,0-35.73-16.53-35.73-38.58,0-12.63,3.7-20.35,9.46-25.16,7.17-6,14.67-6.36,20.31-6.36,11.61,0,19.82,4.71,22.89,8a14.31,14.31,0,0,1,3.5,8.52c.11.81.31,1.32,1,1.32s1.14-.51,1.14-2.16a139.18,139.18,0,0,1,.71-16.81c0-.74-.2-1.14-1.45-1.24a62.63,62.63,0,0,1-8.08-1.14,124.57,124.57,0,0,0-18.18-1.63c-8.63,0-17.75.72-27.62,6.67-9.33,5.63-17.85,17.14-17.85,33.57,0,28.33,22.26,40.22,47.42,40.22,8,0,18.05-1.12,24.75-4.61,1.21-.72,1.32-.92,1.32-3.69v-11.3c0-5.13,0-9.23.09-12.32.1-3.58,1.14-5.33,3.91-5.83a15.79,15.79,0,0,1,2.76-.31c.74,0,1.34-.23,1.34-.83C885.94,233.3,885.24,233.1,883.9,233.1Z" transform="translate(-252.08 -191.72)"/><path class="cls-1" d="M947.11,256c-.71,0-.91.43-1.12,1.55-.74,4.2-2,6.36-4.64,7.61s-7,1.21-9.63,1.21c-10.47,0-12.12-1.52-12.33-8.62-.09-3,0-12.43,0-15.9v-8.11c0-.61.1-1.05.61-1.05,2.48,0,12.63.13,14.58.34,3.8.4,5.25,1.95,5.75,4a24,24,0,0,1,.41,3.69.84.84,0,0,0,.94,1c.92,0,.92-1.14.92-2s.3-4.85.4-6.88c.41-5.24.83-6.89.83-7.51s-.32-.8-.73-.8-.91.5-1.65,1.31c-.91,1-2.46,1.35-4.91,1.55s-14.16.21-16.43.21c-.62,0-.72-.41-.72-1.12v-26c0-.71.21-1,.72-1,2,0,12.82.21,14.58.41,5.14.61,6.15,1.85,6.87,3.7a10.59,10.59,0,0,1,.63,3.71c0,.91.2,1.42.91,1.42s.94-.61,1-1.12c.2-1.25.41-5.75.51-6.79a65.84,65.84,0,0,1,.81-6.67c0-.51-.1-.92-.61-.92a9.37,9.37,0,0,0-1.64.41,44.3,44.3,0,0,1-4.42.61c-1.95.09-22.37.09-25.66.09-1.44,0-3.81-.09-6.46-.19s-5.53-.11-8.33-.11c-1.51,0-2.25.21-2.25.94s.61.91,1.76.91a20.6,20.6,0,0,1,4,.31c3.38.73,4.22,2.36,4.42,5.85.2,3.31.2,6.17.2,21.76v18.08c0,9.43,0,17.55-.51,21.85-.4,3-.93,5.23-3,5.66a16.34,16.34,0,0,1-3.67.41c-1.25,0-1.65.31-1.65.81,0,.73.7,1,2.05,1,2.06,0,4.71-.2,7.08-.2s4.71-.11,5.85-.11c3.08,0,6.26.11,10.67.31s10.07.3,17.76.3c3.9,0,4.82,0,5.55-2.66a81.18,81.18,0,0,0,1.32-11.41C947.92,256.8,947.92,256,947.11,256Z" transform="translate(-252.08 -191.72)"/></svg>